<?xml version="1.0" encoding="UTF-8"?>
<svg id="bear" xmlns="http://www.w3.org/2000/svg" viewBox="0 0 397.27 356.35">
  <defs>
    <style>
      .cls-1 {
        fill: #231f20;
      }

      .cls-2 {
        fill: #27aae1;
      }
    </style>
  </defs>
  <ellipse id="face" class="cls-2" cx="200.33" cy="174.83" rx="171.96" ry="131.32"/>
  <g id="nose">
    <path class="cls-1" d="m160.63,171.43c0-4.27.78-8.25,2.35-11.94s3.91-6.93,7.06-9.7c3.13-2.76,7.07-4.97,11.85-6.6,4.76-1.63,10.36-2.45,16.75-2.45s11.99.82,16.77,2.45c4.76,1.63,8.72,3.84,11.85,6.6,3.13,2.77,5.47,6,7.04,9.7s2.36,7.67,2.36,11.94c0,5.96-1.42,11.43-4.27,16.4-2.85,4.98-6.2,9.52-10.04,13.64l-13.02,14.06,11.1,13.22c4.97,5.97,8.93,10.31,11.85,13,2.9,2.7,5.79,4.05,8.64,4.05,3.28,0,5.49-.74,6.62-2.22,1.15-1.49,1.72-3.64,1.72-6.46v-17.37h10.24v18.37c0,5.98-1.39,10.6-4.15,13.88-2.78,3.28-7.51,4.91-14.2,4.91-3.56,0-6.66-.46-9.3-1.39-2.64-.92-5.2-2.35-7.68-4.27-2.5-1.92-5.02-4.3-7.59-7.15-2.55-2.85-5.54-6.26-8.97-10.25l-8.97-10.68-8.97,10.68c-3.27,3.84-6.22,7.19-8.86,10.04-2.62,2.85-5.2,5.23-7.68,7.15-2.5,1.93-4.99,3.38-7.47,4.38-2.5,1-5.23,1.49-8.22,1.49-6.13,0-10.93-1.63-14.42-4.91s-5.23-8.76-5.23-16.44v-15.81h10.25v17.37c0,2.68.75,4.8,2.24,6.35s3.81,2.33,6.93,2.33c2.43,0,5.09-1.35,8.01-4.05,2.92-2.69,6.95-7.03,12.06-13l11.54-13.42-13.88-13.85c-3.98-3.98-7.37-8.49-10.13-13.53-2.78-5.05-4.17-10.56-4.17-16.52Z"/>
  </g>
  <g id="left_eye" data-name="left eye">
    <path class="cls-1" d="m120.69,102.24c3.96,0,7.64.5,11.04,1.49,3.39.99,6.32,2.61,8.77,4.86,2.45,2.25,4.37,5.21,5.76,8.87,1.39,3.66,2.08,8.17,2.08,13.51,0,4.41-.59,8.38-1.78,11.91-1.19,3.54-2.97,6.56-5.35,9.06-2.38,2.5-5.38,4.43-8.99,5.79-3.62,1.36-7.83,2.04-12.63,2.04-3.92,0-7.56-.47-10.93-1.41s-6.28-2.5-8.73-4.68c-2.45-2.18-4.39-5.02-5.79-8.54-1.42-3.51-2.12-7.84-2.12-12.99,0-4.6.54-8.75,1.63-12.43s2.8-6.83,5.13-9.43c2.33-2.6,5.3-4.59,8.92-5.97s7.95-2.08,13.01-2.08Zm.37,6.1c-3.07,0-5.72.46-7.95,1.37-2.23.92-4.05,2.24-5.46,3.98-1.41,1.74-2.45,3.87-3.12,6.39-.67,2.53-1,5.4-1,8.62,0,5.01.38,9.11,1.12,12.3.74,3.2,1.81,5.72,3.19,7.58,1.39,1.86,3.07,3.15,5.06,3.86,1.98.72,4.21,1.08,6.69,1.08,3.27,0,6.02-.48,8.24-1.45,2.23-.97,4.02-2.38,5.35-4.24,1.34-1.86,2.3-4.16,2.9-6.91.6-2.75.9-5.91.9-9.48,0-4.61-.39-8.4-1.16-11.37s-1.84-5.33-3.23-7.06c-1.39-1.73-3.06-2.95-5.02-3.64-1.95-.7-4.13-1.04-6.5-1.04Zm5.43,22.89c0,1.64-.57,3.02-1.71,4.16-1.14,1.14-2.53,1.71-4.16,1.71s-3.02-.57-4.17-1.71c-1.14-1.14-1.71-2.53-1.71-4.16s.57-2.96,1.71-4.13c1.14-1.16,2.53-1.75,4.17-1.75s3.02.58,4.16,1.75c1.14,1.16,1.71,2.54,1.71,4.13Z"/>
  </g>
  <g id="right_eye" data-name="right eye">
    <path class="cls-1" d="m279.39,102.24c3.96,0,7.64.5,11.04,1.49,3.39.99,6.32,2.61,8.77,4.86,2.45,2.25,4.37,5.21,5.76,8.87,1.39,3.66,2.08,8.17,2.08,13.51,0,4.41-.59,8.38-1.78,11.91-1.19,3.54-2.97,6.56-5.35,9.06-2.38,2.5-5.38,4.43-8.99,5.79-3.62,1.36-7.83,2.04-12.63,2.04-3.92,0-7.56-.47-10.93-1.41s-6.28-2.5-8.73-4.68c-2.45-2.18-4.39-5.02-5.79-8.54-1.42-3.51-2.12-7.84-2.12-12.99,0-4.6.54-8.75,1.63-12.43s2.8-6.83,5.13-9.43c2.33-2.6,5.3-4.59,8.92-5.97s7.95-2.08,13.01-2.08Zm.37,6.1c-3.07,0-5.72.46-7.95,1.37-2.23.92-4.05,2.24-5.46,3.98-1.41,1.74-2.45,3.87-3.12,6.39-.67,2.53-1,5.4-1,8.62,0,5.01.38,9.11,1.12,12.3.74,3.2,1.81,5.72,3.19,7.58,1.39,1.86,3.07,3.15,5.06,3.86,1.98.72,4.21,1.08,6.69,1.08,3.27,0,6.02-.48,8.24-1.45,2.23-.97,4.02-2.38,5.35-4.24,1.34-1.86,2.3-4.16,2.9-6.91.6-2.75.9-5.91.9-9.48,0-4.61-.39-8.4-1.16-11.37s-1.84-5.33-3.23-7.06c-1.39-1.73-3.06-2.95-5.02-3.64-1.95-.7-4.13-1.04-6.5-1.04Zm5.43,22.89c0,1.64-.57,3.02-1.71,4.16-1.14,1.14-2.53,1.71-4.16,1.71s-3.02-.57-4.17-1.71c-1.14-1.14-1.71-2.53-1.71-4.16s.57-2.96,1.71-4.13c1.14-1.16,2.53-1.75,4.17-1.75s3.02.58,4.16,1.75c1.14,1.16,1.71,2.54,1.71,4.13Z"/>
  </g>
</svg>